<svg width="3136" height="14910" viewBox="0 0 3136 14910" fill="none" xmlns="http://www.w3.org/2000/svg">
<path opacity="0.2" d="M1026.76 11142L1027.59 11138.4C1549.63 11274.5 1522.09 11609 1492.06 11963.5C1469.71 12228.9 1447.26 12503.2 1648.63 12717.2C1810.33 12889.1 1941.03 12824.7 2092.34 12749.8C2201.9 12696.1 2325.42 12634.8 2479.53 12657.2C2655.94 12683 2844.03 12814.7 3054.15 13060L3051.34 13062.4C2842 12818 2654.57 12686.7 2479.35 12661.1C2326.96 12638.8 2203.31 12699.6 2094.28 12753.2C1941.38 12828.5 1809.75 12893.6 1645.83 12719.6C1443.01 12504.3 1465.87 12229.4 1488.1 11963.5C1517.97 11610.7 1545.76 11277.2 1026.76 11142Z" fill="#ABABAB"/>
<path opacity="0.2" d="M3031 1C2598.17 16.8333 1678.6 219.3 1463 902.5C1247.4 1585.7 1957.83 2323.5 2340 2607C2751.17 2878.33 3326.8 3983.5 2340 6233.5C1106.5 9046 1272.5 9260.5 2340 10692.5L3133.5 11721.5C2866.83 11756.8 2359.1 12026.9 2461.5 12824.5C2563.9 13622.1 1466.83 14546.5 905.5 14909" stroke="#ABABAB" stroke-width="2"/>
<path opacity="0.2" d="M1 91.5C433.833 107.333 1353.4 309.8 1569 993C1784.6 1676.2 1074.17 2414 692 2697.5C280.833 2968.83 -294.8 4074 692 6324C1925.5 9136.5 1759.5 9351 692 10783" stroke="#ABABAB" stroke-width="2"/>
</svg>
